<svg xmlns="http://www.w3.org/2000/svg" viewBox="0 0 1280 1280"><path fill="#fff" d="M128 640v512h1024V128H128zm524.4-171c14.1 2.1 38.2 11.1 51.1 19.3 10.1 6.3 23.2 16.5 30.3 23.6 7.2 7.1 7.3 7.2 5.5 9.5-8.8 11.1-34 39.6-35 39.6-.8 0-5.3-3.4-10.1-7.7-22.6-19.8-43.8-29.3-65.7-29.3-15.3 0-27.6 4.1-34.7 11.7-11 11.7-10.5 29.9 1.1 39 9.8 7.8 20.5 12.1 55.6 22.3 25.4 7.4 42.5 14.6 54.2 23 13 9.2 27.8 26.5 27.1 31.6-.2 1.2-5.7 6.6-13.9 13.5-7.5 6.3-18.9 15.9-25.3 21.3-12.9 10.8-13.6 11-13.6 2.6 0-6.4-4.3-14.4-10.5-19.3-8.3-6.6-19.8-11.3-49-19.7-37.4-10.8-57.1-20.5-73.2-36-17.1-16.5-24.4-42.4-19.8-70.7 2.9-17.8 12.1-35 25.3-47.5 8.4-7.9 13.9-11.8 23.5-16.5 13.5-6.7 23.5-9.5 42.7-11.7 5.1-.6 26.4.3 34.4 1.4m180.8 125.7c-4.4 5.4-18.6 22.6-31.6 38.3-20.3 24.5-49.3 59.7-101.6 123.5-6.8 8.2-16.6 20.2-21.9 26.5s-11.2 13.5-13.1 15.9-5.3 6.5-7.5 9-6.2 7.4-8.9 10.9c-2.7 3.4-5.5 6.2-6.2 6.2s-5-3.5-9.6-7.8-31-28.4-58.8-53.6-51.4-46.7-52.5-47.7c-1.8-1.7-1.8-2.1-.5-4.3 1.5-2.4 31-32.9 33.1-34.1.6-.4 3.6 1.7 6.7 4.7 7.7 7.1 11.6 10.6 33.2 29.8 10.2 9 19 16.9 19.6 17.5 7.4 6.9 25.9 23 26.5 23s16.6-13 23.5-19.3c2.5-2.2 110.6-93.9 126.8-107.6 4.4-3.7 10.8-9.2 14.1-12.1 17.9-15.6 36-30.4 36.3-29.6.2.5-3.3 5.4-7.6 10.8"/><path fill="#ffd4ff" d="M679.2 692c0 1.4.2 1.9.5 1.2.2-.6.2-1.8 0-2.5-.3-.6-.5-.1-.5 1.3"/><path fill="#ffd4d4" d="M622.8 467.7c.7.3 1.6.2 1.9-.1.4-.3-.2-.6-1.3-.5-1.1 0-1.4.3-.6.6M725.5 505c1 1.1 2 2 2.3 2s-.3-.9-1.3-2-2-2-2.3-2 .3.9 1.3 2m10 9c1 1.1 2 2 2.3 2s-.3-.9-1.3-2-2-2-2.3-2 .3.9 1.3 2m-109.2 9.7c.9.2 2.5.2 3.5 0 .9-.3.1-.5-1.8-.5s-2.7.2-1.7.5m85.6 29c-1.3 1.6-1.2 1.7.4.4.9-.7 1.7-1.5 1.7-1.7 0-.8-.8-.3-2.1 1.3m-11.9 5.7c0 .2.8 1 1.8 1.7 1.5 1.3 1.6 1.2.3-.4s-2.1-2.1-2.1-1.3m5.9 1.3c-1.3 1.6-1.2 1.7.4.4.9-.7 1.7-1.5 1.7-1.7 0-.8-.8-.3-2.1 1.3m120 43c-1.3 1.6-1.2 1.7.4.4.9-.7 1.7-1.5 1.7-1.7 0-.8-.8-.3-2.1 1.3m-10 1c-1.3 1.6-1.2 1.7.4.4.9-.7 1.7-1.5 1.7-1.7 0-.8-.8-.3-2.1 1.3m-6.5 5.5-1.9 2.3 2.3-1.9c2.1-1.8 2.7-2.6 1.9-2.6-.2 0-1.2 1-2.3 2.2m-11.5 27.5c-1.3 1.6-1.2 1.7.4.4.9-.7 1.7-1.5 1.7-1.7 0-.8-.8-.3-2.1 1.3m-4 5c-1.3 1.6-1.2 1.7.4.4.9-.7 1.7-1.5 1.7-1.7 0-.8-.8-.3-2.1 1.3m-5 6c-1.3 1.6-1.2 1.7.4.4s2.1-2.1 1.3-2.1c-.2 0-1 .8-1.7 1.7m-261.4 56.5-6 6.3 6.3-6c5.8-5.5 6.7-6.5 5.9-6.5-.1 0-2.9 2.8-6.2 6.2m57.5.2c0 .2.8 1 1.8 1.7 1.5 1.3 1.6 1.2.3-.4s-2.1-2.1-2.1-1.3m110.9 1.3c-1.3 1.6-1.2 1.7.4.4.9-.7 1.7-1.5 1.7-1.7 0-.8-.8-.3-2.1 1.3M521.5 716c1 1.1 2 2 2.3 2s-.3-.9-1.3-2-2-2-2.3-2 .3.9 1.3 2m11 10c1 1.1 2 2 2.3 2s-.3-.9-1.3-2-2-2-2.3-2 .3.9 1.3 2m136.4 2.7c-1.3 1.6-1.2 1.7.4.4.9-.7 1.7-1.5 1.7-1.7 0-.8-.8-.3-2.1 1.3m50 4c-1.3 1.6-1.2 1.7.4.4.9-.7 1.7-1.5 1.7-1.7 0-.8-.8-.3-2.1 1.3M544.5 737c1 1.1 2 2 2.3 2s-.3-.9-1.3-2-2-2-2.3-2 .3.9 1.3 2m79 2c1 1.1 2 2 2.3 2s-.3-.9-1.3-2-2-2-2.3-2 .3.9 1.3 2m-69.5 6.4c0 .2.8 1 1.8 1.7 1.5 1.3 1.6 1.2.3-.4s-2.1-2.1-2.1-1.3m88.9 5.3c-1.3 1.6-1.2 1.7.4.4.9-.7 1.7-1.5 1.7-1.7 0-.8-.8-.3-2.1 1.3m52 11c-1.3 1.6-1.2 1.7.4.4.9-.7 1.7-1.5 1.7-1.7 0-.8-.8-.3-2.1 1.3m-4 5c-1.3 1.6-1.2 1.7.4.4.9-.7 1.7-1.5 1.7-1.7 0-.8-.8-.3-2.1 1.3m-5 6c-1.3 1.6-1.2 1.7.4.4.9-.7 1.7-1.5 1.7-1.7 0-.8-.8-.3-2.1 1.3m-100.9.7c0 .2.8 1 1.8 1.7 1.5 1.3 1.6 1.2.3-.4s-2.1-2.1-2.1-1.3m13.5 12.6c1 1.1 2 2 2.3 2s-.3-.9-1.3-2-2-2-2.3-2 .3.9 1.3 2m12 11c1 1.1 2 2 2.3 2s-.3-.9-1.3-2-2-2-2.3-2 .3.9 1.3 2m47.4 9.7c-1.3 1.6-1.2 1.7.4.4s2.1-2.1 1.3-2.1c-.2 0-1 .8-1.7 1.7m-36.9-.3c0 .2.8 1 1.8 1.7 1.5 1.3 1.6 1.2.3-.4s-2.1-2.1-2.1-1.3m14 13.1c1.3 1.4 2.6 2.5 2.8 2.5.3 0-.5-1.1-1.8-2.5s-2.6-2.5-2.8-2.5c-.3 0 .5 1.1 1.8 2.5"/><path fill="#d4d4d4" d="M625.8 467.7c.7.3 1.6.2 1.9-.1.4-.3-.2-.6-1.3-.5-1.1 0-1.4.3-.6.6m6 0c.6.2 1.8.2 2.5 0 .6-.3.1-.5-1.3-.5s-1.9.2-1.2.5M568 689.4c0 .2.8 1 1.8 1.7 1.5 1.3 1.6 1.2.3-.4s-2.1-2.1-2.1-1.3m-33.1 7.3c-1.3 1.6-1.2 1.7.4.4.9-.7 1.7-1.5 1.7-1.7 0-.8-.8-.3-2.1 1.3m40.1 67.7c0 .2.8 1 1.8 1.7 1.5 1.3 1.6 1.2.3-.4s-2.1-2.1-2.1-1.3"/><path fill="#d4aad4" d="M628.8 467.7c.7.3 1.6.2 1.9-.1.4-.3-.2-.6-1.3-.5-1.1 0-1.4.3-.6.6m-35.4 67.5-1.9 2.3 2.3-1.9c2.1-1.8 2.7-2.6 1.9-2.6-.2 0-1.2 1-2.3 2.2"/><path fill="#d4aaaa" d="M549.9 497.7c-1.3 1.6-1.2 1.7.4.4.9-.7 1.7-1.5 1.7-1.7 0-.8-.8-.3-2.1 1.3m184 29c-1.3 1.6-1.2 1.7.4.4.9-.7 1.7-1.5 1.7-1.7 0-.8-.8-.3-2.1 1.3m-208.6 32.8c0 3.3.2 4.5.4 2.7s.2-4.5 0-6-.4 0-.4 3.3m172.2-3.5c1 1.1 2 2 2.3 2s-.3-.9-1.3-2-2-2-2.3-2 .3.9 1.3 2M541 608.4c0 .2.8 1 1.8 1.7 1.5 1.3 1.6 1.2.3-.4s-2.1-2.1-2.1-1.3m6 6c0 .2.8 1 1.8 1.7 1.5 1.3 1.6 1.2.3-.4s-2.1-2.1-2.1-1.3m192.4 54.8-1.9 2.3 2.3-1.9c2.1-1.8 2.7-2.6 1.9-2.6-.2 0-1.2 1-2.3 2.2m27.5 4.5c-1.3 1.6-1.2 1.7.4.4.9-.7 1.7-1.5 1.7-1.7 0-.8-.8-.3-2.1 1.3M562.5 685c1 1.1 2 2 2.3 2s-.3-.9-1.3-2-2-2-2.3-2 .3.9 1.3 2m-19.5 3.5c-2.4 2.5-4.2 4.5-3.9 4.5s2.5-2 4.9-4.5 4.2-4.5 3.9-4.5-2.5 2-4.9 4.5m145.9.2c-1.3 1.6-1.2 1.7.4.4.9-.7 1.7-1.5 1.7-1.7 0-.8-.8-.3-2.1 1.3m24 3c-1.3 1.6-1.2 1.7.4.4.9-.7 1.7-1.5 1.7-1.7 0-.8-.8-.3-2.1 1.3m31 10c-1.3 1.6-1.2 1.7.4.4.9-.7 1.7-1.5 1.7-1.7 0-.8-.8-.3-2.1 1.3m-162.9-.3c0 .2.8 1 1.8 1.7 1.5 1.3 1.6 1.2.3-.4s-2.1-2.1-2.1-1.3m18 16c0 .2.8 1 1.8 1.7 1.5 1.3 1.6 1.2.3-.4s-2.1-2.1-2.1-1.3m-71.5 3.6c1 1.1 2 2 2.3 2s-.3-.9-1.3-2-2-2-2.3-2 .3.9 1.3 2m11.5 10.5c1.3 1.4 2.6 2.5 2.8 2.5.3 0-.5-1.1-1.8-2.5s-2.6-2.5-2.8-2.5c-.3 0 .5 1.1 1.8 2.5m78 1.9c0 .2.8 1 1.8 1.7 1.5 1.3 1.6 1.2.3-.4s-2.1-2.1-2.1-1.3m-68 7c0 .2.8 1 1.8 1.7 1.5 1.3 1.6 1.2.3-.4s-2.1-2.1-2.1-1.3m12.5 11.6c1 1.1 2 2 2.3 2s-.3-.9-1.3-2-2-2-2.3-2 .3.9 1.3 2m74.5-1.6c0 .2.8 1 1.8 1.7 1.5 1.3 1.6 1.2.3-.4s-2.1-2.1-2.1-1.3m-65 10c0 .2.8 1 1.8 1.7 1.5 1.3 1.6 1.2.3-.4s-2.1-2.1-2.1-1.3m11 10c0 .2.8 1 1.8 1.7 1.5 1.3 1.6 1.2.3-.4s-2.1-2.1-2.1-1.3m11 10c0 .2.8 1 1.8 1.7 1.5 1.3 1.6 1.2.3-.4s-2.1-2.1-2.1-1.3m12 11.1c1.3 1.4 2.6 2.5 2.8 2.5.3 0-.5-1.1-1.8-2.5s-2.6-2.5-2.8-2.5c-.3 0 .5 1.1 1.8 2.5m23.5 21.5c1 1.1 2 2 2.3 2s-.3-.9-1.3-2-2-2-2.3-2 .3.9 1.3 2"/><path fill="#d480aa" d="M548.9 682.7c-1.3 1.6-1.2 1.7.4.4.9-.7 1.7-1.5 1.7-1.7 0-.8-.8-.3-2.1 1.3M614 799.4c0 .2.8 1 1.8 1.7 1.5 1.3 1.6 1.2.3-.4s-2.1-2.1-2.1-1.3"/><path fill="#aa5580" d="M527.9 704.7c-1.3 1.6-1.2 1.7.4.4s2.1-2.1 1.3-2.1c-.2 0-1 .8-1.7 1.7"/><path fill="#a55" d="M733 512.3c0 .2 1.5 1.6 3.3 3.3l3.2 2.9-2.9-3.3c-2.8-3-3.6-3.7-3.6-2.9m-28.1 47.4c-1.3 1.6-1.2 1.7.4.4.9-.7 1.7-1.5 1.7-1.7 0-.8-.8-.3-2.1 1.3M576.5 698c1 1.1 2 2 2.3 2s-.3-.9-1.3-2-2-2-2.3-2 .3.9 1.3 2m.5 67.4c0 .2.8 1 1.8 1.7 1.5 1.3 1.6 1.2.3-.4s-2.1-2.1-2.1-1.3m44 40c0 .2.8 1 1.8 1.7 1.5 1.3 1.6 1.2.3-.4s-2.1-2.1-2.1-1.3"/><path fill="#a05" d="M801.9 616.7c-1.3 1.6-1.2 1.7.4.4s2.1-2.1 1.3-2.1c-.2 0-1 .8-1.7 1.7m-121.8 74.9c0 1.1.3 1.4.6.6.3-.7.2-1.6-.1-1.9-.3-.4-.6.2-.5 1.3m-145.2 6.1c-1.3 1.6-1.2 1.7.4.4.9-.7 1.7-1.5 1.7-1.7 0-.8-.8-.3-2.1 1.3m-4.9 24.7c0 .2.8 1 1.8 1.7 1.5 1.3 1.6 1.2.3-.4s-2.1-2.1-2.1-1.3m22 20c0 .2.8 1 1.8 1.7 1.5 1.3 1.6 1.2.3-.4s-2.1-2.1-2.1-1.3m80 73c0 .2.8 1 1.8 1.7 1.5 1.3 1.6 1.2.3-.4s-2.1-2.1-2.1-1.3"/><g fill="#a00" stroke-width="0"><path d="M610.5 469.4c-36 5.9-62 23.7-76.2 52.1-5.6 11.1-7.8 22.1-7.7 38.5 0 12.8.4 15.5 2.8 23.4 6.6 21.9 22.2 38.3 48.1 50.6 9.2 4.3 30.9 11.8 52.5 18.1 36.2 10.5 47.9 19 50.5 37.1.3 2.7.8 4.8 1.1 4.8.4 0 38.2-31.6 46.8-39.2l3.1-2.7-2.8-5.5c-3.9-7.4-12.5-16.7-22.2-23.9-13.9-10.3-30.3-17.3-64.5-27.2-45.9-13.4-58.1-22.3-56.8-42 .6-8.4 2.9-13.3 9-19.1 9-8.7 20.6-12 38.7-11.2 21.4 1.1 39.4 9.8 63.6 30.7 3.9 3.4 7.3 6.1 7.7 6.1.8 0 34.1-38.6 34.7-40.1.4-1.4-7.6-9.6-16.7-17-27.5-22.2-57.3-33.7-89.7-34.5-8.6-.2-17.1.2-22 1"/><path d="M831 592.2c-2.5 2.2-9.7 8.5-16 13.8-6.3 5.4-23 19.5-37 31.5-14 11.9-32.2 27.3-40.5 34.3-37.7 32-66.4 56.4-85.1 72.4-6.3 5.4-11.8 9.8-12.2 9.8-.6 0-46.1-40.2-73.7-65.2l-12-10.9-16.7 17.3c-9.2 9.5-16.7 17.6-16.8 17.9 0 .4 6.8 6.9 15.2 14.5 8.4 7.7 21.1 19.3 28.2 25.8 7.2 6.6 15.1 13.8 17.6 16 2.5 2.3 14.3 13.1 26.4 24.1 12 10.9 24.4 22.2 27.6 25.2 3.2 2.9 6 5.3 6.3 5.3.6 0 30.7-36.3 84.2-101.5 20.2-24.7 94.6-115 103-125 3.7-4.4 7.1-9.6 6.3-9.5-.2.1-2.3 1.9-4.8 4.2"/></g><path fill="#d48080" d="M520.9 711.7c-1.3 1.6-1.2 1.7.4.4.9-.7 1.7-1.5 1.7-1.7 0-.8-.8-.3-2.1 1.3"/></svg>